<svg xmlns="http://www.w3.org/2000/svg" width="1200" height="630" viewBox="0 0 1200 630" fill="none"><rect width="1200" height="630" fill="#0B0B0C"/><g transform="translate(329.9,300) scale(0.16)"><g transform="translate(-369.35,-772.79) scale(8.5896)"><line x1="60" y1="14" x2="60" y2="30" stroke="#F2F2F3" stroke-width="6" stroke-linecap="round"/><rect x="46" y="28" width="28" height="44" rx="5" fill="#F2F2F3"/><line x1="60" y1="70" x2="60" y2="84" stroke="#F2F2F3" stroke-width="6"/><line x1="60" y1="84" x2="60" y2="104" stroke="#4C8DFF" stroke-width="6" stroke-linecap="round"/></g><g transform="translate(451.65,0)"><path d="M280 12Q164 12 106.0 -38.5Q48 -89 42 -168L151 -173Q158 -129 187.0 -103.0Q216 -77 280 -77Q330 -77 356.5 -93.0Q383 -109 383 -144Q383 -164 374.0 -177.0Q365 -190 339.0 -199.5Q313 -209 262 -218Q184 -233 140.5 -253.5Q97 -274 79.0 -304.5Q61 -335 61 -379Q61 -451 116.0 -497.5Q171 -544 275 -544Q348 -544 395.0 -519.5Q442 -495 466.0 -455.0Q490 -415 495 -369L386 -363Q383 -401 357.5 -428.0Q332 -455 273 -455Q221 -455 196.0 -435.0Q171 -415 171 -383Q171 -348 194.5 -330.5Q218 -313 283 -303Q364 -290 409.5 -269.5Q455 -249 474.0 -218.5Q493 -188 493 -145Q493 -70 434.0 -29.0Q375 12 280 12ZM681.0 0 519.0 -532H630.0L744.0 -116L861.0 -532H961.0L1078.0 -116L1193.0 -532H1304.0L1142.0 0H1023.0L911.0 -380L799.0 0ZM1580.0 12Q1502.0 12 1445.5 -22.5Q1389.0 -57 1358.5 -119.5Q1328.0 -182 1328.0 -266Q1328.0 -350 1358.5 -412.5Q1389.0 -475 1445.0 -509.5Q1501.0 -544 1577.0 -544Q1649.0 -544 1704.0 -510.5Q1759.0 -477 1789.5 -414.0Q1820.0 -351 1820.0 -262V-235H1438.0Q1442.0 -157 1479.5 -118.0Q1517.0 -79 1581.0 -79Q1628.0 -79 1658.5 -100.5Q1689.0 -122 1702.0 -160L1812.0 -153Q1791.0 -78 1729.5 -33.0Q1668.0 12 1580.0 12ZM1438.0 -315H1708.0Q1703.0 -386 1667.0 -420.0Q1631.0 -454 1577.0 -454Q1520.0 -454 1483.5 -418.5Q1447.0 -383 1438.0 -315ZM2116.0 12Q2038.0 12 1981.5 -22.5Q1925.0 -57 1894.5 -119.5Q1864.0 -182 1864.0 -266Q1864.0 -350 1894.5 -412.5Q1925.0 -475 1981.0 -509.5Q2037.0 -544 2113.0 -544Q2185.0 -544 2240.0 -510.5Q2295.0 -477 2325.5 -414.0Q2356.0 -351 2356.0 -262V-235H1974.0Q1978.0 -157 2015.5 -118.0Q2053.0 -79 2117.0 -79Q2164.0 -79 2194.5 -100.5Q2225.0 -122 2238.0 -160L2348.0 -153Q2327.0 -78 2265.5 -33.0Q2204.0 12 2116.0 12ZM1974.0 -315H2244.0Q2239.0 -386 2203.0 -420.0Q2167.0 -454 2113.0 -454Q2056.0 -454 2019.5 -418.5Q1983.0 -383 1974.0 -315ZM2433.0 150V-532H2533.0L2535.0 -451Q2558.0 -497 2600.5 -520.5Q2643.0 -544 2696.0 -544Q2774.0 -544 2824.5 -505.5Q2875.0 -467 2899.5 -404.0Q2924.0 -341 2924.0 -266Q2924.0 -191 2899.5 -128.0Q2875.0 -65 2824.5 -26.5Q2774.0 12 2696.0 12Q2645.0 12 2603.0 -10.5Q2561.0 -33 2539.0 -72V150ZM2677.0 -80Q2741.0 -80 2777.5 -129.0Q2814.0 -178 2814.0 -266Q2814.0 -354 2777.5 -403.0Q2741.0 -452 2677.0 -452Q2613.0 -452 2576.0 -405.0Q2539.0 -358 2539.0 -266Q2539.0 -174 2576.0 -127.0Q2613.0 -80 2677.0 -80Z" fill="#F2F2F3"/></g></g><g transform="translate(238.8,425) scale(0.042)"><path d="M243 0V-285L-6 -710H118L297 -393L477 -710H601L351 -285V0ZM868.0 12Q792.0 12 735.0 -22.5Q678.0 -57 647.0 -119.0Q616.0 -181 616.0 -266Q616.0 -351 647.0 -413.0Q678.0 -475 735.0 -509.5Q792.0 -544 868.0 -544Q944.0 -544 1001.0 -509.5Q1058.0 -475 1089.0 -413.0Q1120.0 -351 1120.0 -266Q1120.0 -181 1089.0 -119.0Q1058.0 -57 1001.0 -22.5Q944.0 12 868.0 12ZM868.0 -80Q936.0 -80 973.0 -129.0Q1010.0 -178 1010.0 -266Q1010.0 -353 973.0 -402.5Q936.0 -452 868.0 -452Q801.0 -452 763.5 -402.5Q726.0 -353 726.0 -266Q726.0 -178 763.5 -129.0Q801.0 -80 868.0 -80ZM1392.0 12Q1311.0 12 1264.0 -41.0Q1217.0 -94 1217.0 -190V-532H1323.0V-217Q1323.0 -145 1348.0 -111.0Q1373.0 -77 1424.0 -77Q1482.0 -77 1514.5 -114.5Q1547.0 -152 1547.0 -220V-532H1653.0V0H1554.0L1553.0 -87Q1510.0 12 1392.0 12ZM1783.0 0V-532H1880.0L1883.0 -431Q1898.0 -483 1929.5 -507.5Q1961.0 -532 2010.0 -532H2061.0V-437H2010.0Q1949.0 -437 1919.0 -407.0Q1889.0 -377 1889.0 -314V0ZM2584.0 0Q2508.0 0 2472.0 -34.5Q2436.0 -69 2436.0 -144V-445H2355.0V-532H2436.0V-657H2542.0V-532H2683.0V-445H2542.0V-152Q2542.0 -115 2558.0 -101.0Q2574.0 -87 2607.0 -87H2683.0V0ZM2770.0 0V-532H2867.0L2870.0 -431Q2885.0 -483 2916.5 -507.5Q2948.0 -532 2997.0 -532H3048.0V-437H2997.0Q2936.0 -437 2906.0 -407.0Q2876.0 -377 2876.0 -314V0ZM3293.0 12Q3210.0 12 3160.5 -26.0Q3111.0 -64 3111.0 -133Q3111.0 -201 3152.5 -240.0Q3194.0 -279 3281.0 -296L3464.0 -331Q3464.0 -454 3349.0 -454Q3298.0 -454 3269.0 -431.0Q3240.0 -408 3229.0 -365L3120.0 -372Q3135.0 -452 3194.5 -498.0Q3254.0 -544 3349.0 -544Q3457.0 -544 3513.5 -486.5Q3570.0 -429 3570.0 -325V-118Q3570.0 -99 3576.5 -91.5Q3583.0 -84 3598.0 -84H3617.0V0Q3603.0 3 3578.0 3Q3533.0 3 3506.5 -15.5Q3480.0 -34 3473.0 -79V-82Q3453.0 -40 3404.0 -14.0Q3355.0 12 3293.0 12ZM3310.0 -72Q3382.0 -72 3423.0 -113.0Q3464.0 -154 3464.0 -217V-251L3308.0 -221Q3260.0 -212 3240.5 -192.5Q3221.0 -173 3221.0 -143Q3221.0 -109 3244.5 -90.5Q3268.0 -72 3310.0 -72ZM3878.0 12Q3810.0 12 3760.0 -22.0Q3710.0 -56 3683.0 -118.5Q3656.0 -181 3656.0 -266Q3656.0 -351 3683.0 -413.5Q3710.0 -476 3760.0 -510.0Q3810.0 -544 3878.0 -544Q3933.0 -544 3976.0 -521.0Q4019.0 -498 4041.0 -457V-710H4147.0V0H4048.0L4045.0 -80Q4023.0 -36 3978.5 -12.0Q3934.0 12 3878.0 12ZM3906.0 -80Q3971.0 -80 4006.0 -129.0Q4041.0 -178 4041.0 -266Q4041.0 -355 4006.0 -403.5Q3971.0 -452 3906.0 -452Q3842.0 -452 3804.0 -402.5Q3766.0 -353 3766.0 -266Q3766.0 -181 3804.0 -130.5Q3842.0 -80 3906.0 -80ZM4277.0 0V-532H4383.0V0ZM4275.0 -609V-715H4385.0V-609ZM4513.0 0V-532H4610.0L4612.0 -439Q4633.0 -494 4676.0 -519.0Q4719.0 -544 4774.0 -544Q4833.0 -544 4873.0 -517.5Q4913.0 -491 4933.5 -445.5Q4954.0 -400 4954.0 -342V0H4848.0V-310Q4848.0 -380 4824.5 -417.5Q4801.0 -455 4745.0 -455Q4688.0 -455 4653.5 -417.5Q4619.0 -380 4619.0 -310V0ZM5298.0 162Q5203.0 162 5143.0 120.0Q5083.0 78 5066.0 9L5176.0 2Q5187.0 36 5214.5 55.0Q5242.0 74 5298.0 74Q5364.0 74 5399.5 46.0Q5435.0 18 5435.0 -39V-116Q5415.0 -75 5373.0 -51.0Q5331.0 -27 5280.0 -27Q5213.0 -27 5161.0 -59.5Q5109.0 -92 5080.0 -150.5Q5051.0 -209 5051.0 -285Q5051.0 -361 5079.5 -419.5Q5108.0 -478 5159.0 -511.0Q5210.0 -544 5276.0 -544Q5333.0 -544 5376.5 -518.0Q5420.0 -492 5439.0 -448V-532H5541.0V-42Q5541.0 56 5475.5 109.0Q5410.0 162 5298.0 162ZM5297.0 -117Q5359.0 -117 5396.5 -162.0Q5434.0 -207 5435.0 -286Q5436.0 -364 5398.0 -409.0Q5360.0 -454 5297.0 -454Q5232.0 -454 5196.5 -408.5Q5161.0 -363 5161.0 -286Q5161.0 -208 5197.5 -162.5Q5234.0 -117 5297.0 -117ZM6113.0 12Q6035.0 12 5978.5 -22.5Q5922.0 -57 5891.5 -119.5Q5861.0 -182 5861.0 -266Q5861.0 -350 5891.5 -412.5Q5922.0 -475 5978.0 -509.5Q6034.0 -544 6110.0 -544Q6182.0 -544 6237.0 -510.5Q6292.0 -477 6322.5 -414.0Q6353.0 -351 6353.0 -262V-235H5971.0Q5975.0 -157 6012.5 -118.0Q6050.0 -79 6114.0 -79Q6161.0 -79 6191.5 -100.5Q6222.0 -122 6235.0 -160L6345.0 -153Q6324.0 -78 6262.5 -33.0Q6201.0 12 6113.0 12ZM5971.0 -315H6241.0Q6236.0 -386 6200.0 -420.0Q6164.0 -454 6110.0 -454Q6053.0 -454 6016.5 -418.5Q5980.0 -383 5971.0 -315ZM6639.0 12Q6571.0 12 6521.0 -22.0Q6471.0 -56 6444.0 -118.5Q6417.0 -181 6417.0 -266Q6417.0 -351 6444.0 -413.5Q6471.0 -476 6521.0 -510.0Q6571.0 -544 6639.0 -544Q6694.0 -544 6737.0 -521.0Q6780.0 -498 6802.0 -457V-710H6908.0V0H6809.0L6806.0 -80Q6784.0 -36 6739.5 -12.0Q6695.0 12 6639.0 12ZM6667.0 -80Q6732.0 -80 6767.0 -129.0Q6802.0 -178 6802.0 -266Q6802.0 -355 6767.0 -403.5Q6732.0 -452 6667.0 -452Q6603.0 -452 6565.0 -402.5Q6527.0 -353 6527.0 -266Q6527.0 -181 6565.0 -130.5Q6603.0 -80 6667.0 -80ZM7252.0 162Q7157.0 162 7097.0 120.0Q7037.0 78 7020.0 9L7130.0 2Q7141.0 36 7168.5 55.0Q7196.0 74 7252.0 74Q7318.0 74 7353.5 46.0Q7389.0 18 7389.0 -39V-116Q7369.0 -75 7327.0 -51.0Q7285.0 -27 7234.0 -27Q7167.0 -27 7115.0 -59.5Q7063.0 -92 7034.0 -150.5Q7005.0 -209 7005.0 -285Q7005.0 -361 7033.5 -419.5Q7062.0 -478 7113.0 -511.0Q7164.0 -544 7230.0 -544Q7287.0 -544 7330.5 -518.0Q7374.0 -492 7393.0 -448V-532H7495.0V-42Q7495.0 56 7429.5 109.0Q7364.0 162 7252.0 162ZM7251.0 -117Q7313.0 -117 7350.5 -162.0Q7388.0 -207 7389.0 -286Q7390.0 -364 7352.0 -409.0Q7314.0 -454 7251.0 -454Q7186.0 -454 7150.5 -408.5Q7115.0 -363 7115.0 -286Q7115.0 -208 7151.5 -162.5Q7188.0 -117 7251.0 -117ZM7844.0 12Q7766.0 12 7709.5 -22.5Q7653.0 -57 7622.5 -119.5Q7592.0 -182 7592.0 -266Q7592.0 -350 7622.5 -412.5Q7653.0 -475 7709.0 -509.5Q7765.0 -544 7841.0 -544Q7913.0 -544 7968.0 -510.5Q8023.0 -477 8053.5 -414.0Q8084.0 -351 8084.0 -262V-235H7702.0Q7706.0 -157 7743.5 -118.0Q7781.0 -79 7845.0 -79Q7892.0 -79 7922.5 -100.5Q7953.0 -122 7966.0 -160L8076.0 -153Q8055.0 -78 7993.5 -33.0Q7932.0 12 7844.0 12ZM7702.0 -315H7972.0Q7967.0 -386 7931.0 -420.0Q7895.0 -454 7841.0 -454Q7784.0 -454 7747.5 -418.5Q7711.0 -383 7702.0 -315ZM8153.0 157 8203.0 0H8148.0V-126H8277.0V-15L8214.0 157ZM8651.0 0V-445H8577.0V-532H8651.0V-566Q8651.0 -632 8688.0 -671.0Q8725.0 -710 8803.0 -710H8898.0V-623H8818.0Q8757.0 -623 8757.0 -560V-532H8890.0V-445H8757.0V0ZM8989.0 0V-532H9095.0V0ZM8987.0 -609V-715H9097.0V-609ZM9225.0 0V-532H9322.0L9324.0 -439Q9345.0 -494 9388.0 -519.0Q9431.0 -544 9486.0 -544Q9545.0 -544 9585.0 -517.5Q9625.0 -491 9645.5 -445.5Q9666.0 -400 9666.0 -342V0H9560.0V-310Q9560.0 -380 9536.5 -417.5Q9513.0 -455 9457.0 -455Q9400.0 -455 9365.5 -417.5Q9331.0 -380 9331.0 -310V0ZM9945.0 12Q9862.0 12 9812.5 -26.0Q9763.0 -64 9763.0 -133Q9763.0 -201 9804.5 -240.0Q9846.0 -279 9933.0 -296L10116.0 -331Q10116.0 -454 10001.0 -454Q9950.0 -454 9921.0 -431.0Q9892.0 -408 9881.0 -365L9772.0 -372Q9787.0 -452 9846.5 -498.0Q9906.0 -544 10001.0 -544Q10109.0 -544 10165.5 -486.5Q10222.0 -429 10222.0 -325V-118Q10222.0 -99 10228.5 -91.5Q10235.0 -84 10250.0 -84H10269.0V0Q10255.0 3 10230.0 3Q10185.0 3 10158.5 -15.5Q10132.0 -34 10125.0 -79V-82Q10105.0 -40 10056.0 -14.0Q10007.0 12 9945.0 12ZM9962.0 -72Q10034.0 -72 10075.0 -113.0Q10116.0 -154 10116.0 -217V-251L9960.0 -221Q9912.0 -212 9892.5 -192.5Q9873.0 -173 9873.0 -143Q9873.0 -109 9896.5 -90.5Q9920.0 -72 9962.0 -72ZM10457.0 0Q10404.0 0 10372.5 -27.0Q10341.0 -54 10341.0 -113V-710H10447.0V-123Q10447.0 -87 10484.0 -87H10526.0V0ZM10719.0 0Q10666.0 0 10634.5 -27.0Q10603.0 -54 10603.0 -113V-710H10709.0V-123Q10709.0 -87 10746.0 -87H10788.0V0ZM10895.0 150V63H10960.0Q10987.0 63 11000.0 55.0Q11013.0 47 11020.0 28L11037.0 -16H11004.0L10812.0 -532H10924.0L11070.0 -114L11209.0 -532H11322.0L11110.0 62Q11094.0 108 11062.5 129.0Q11031.0 150 10975.0 150ZM11621.0 0V-532H11727.0V0ZM11619.0 -609V-715H11729.0V-609ZM11857.0 0V-532H11954.0L11956.0 -439Q11977.0 -494 12020.0 -519.0Q12063.0 -544 12118.0 -544Q12177.0 -544 12217.0 -517.5Q12257.0 -491 12277.5 -445.5Q12298.0 -400 12298.0 -342V0H12192.0V-310Q12192.0 -380 12168.5 -417.5Q12145.0 -455 12089.0 -455Q12032.0 -455 11997.5 -417.5Q11963.0 -380 11963.0 -310V0ZM12870.0 12Q12794.0 12 12737.0 -22.5Q12680.0 -57 12649.0 -119.0Q12618.0 -181 12618.0 -266Q12618.0 -351 12649.0 -413.0Q12680.0 -475 12737.0 -509.5Q12794.0 -544 12870.0 -544Q12946.0 -544 13003.0 -509.5Q13060.0 -475 13091.0 -413.0Q13122.0 -351 13122.0 -266Q13122.0 -181 13091.0 -119.0Q13060.0 -57 13003.0 -22.5Q12946.0 12 12870.0 12ZM12870.0 -80Q12938.0 -80 12975.0 -129.0Q13012.0 -178 13012.0 -266Q13012.0 -353 12975.0 -402.5Q12938.0 -452 12870.0 -452Q12803.0 -452 12765.5 -402.5Q12728.0 -353 12728.0 -266Q12728.0 -178 12765.5 -129.0Q12803.0 -80 12870.0 -80ZM13219.0 0V-532H13316.0L13318.0 -439Q13339.0 -494 13382.0 -519.0Q13425.0 -544 13480.0 -544Q13539.0 -544 13579.0 -517.5Q13619.0 -491 13639.5 -445.5Q13660.0 -400 13660.0 -342V0H13554.0V-310Q13554.0 -380 13530.5 -417.5Q13507.0 -455 13451.0 -455Q13394.0 -455 13359.5 -417.5Q13325.0 -380 13325.0 -310V0ZM14009.0 12Q13931.0 12 13874.5 -22.5Q13818.0 -57 13787.5 -119.5Q13757.0 -182 13757.0 -266Q13757.0 -350 13787.5 -412.5Q13818.0 -475 13874.0 -509.5Q13930.0 -544 14006.0 -544Q14078.0 -544 14133.0 -510.5Q14188.0 -477 14218.5 -414.0Q14249.0 -351 14249.0 -262V-235H13867.0Q13871.0 -157 13908.5 -118.0Q13946.0 -79 14010.0 -79Q14057.0 -79 14087.5 -100.5Q14118.0 -122 14131.0 -160L14241.0 -153Q14220.0 -78 14158.5 -33.0Q14097.0 12 14009.0 12ZM13867.0 -315H14137.0Q14132.0 -386 14096.0 -420.0Q14060.0 -454 14006.0 -454Q13949.0 -454 13912.5 -418.5Q13876.0 -383 13867.0 -315ZM14569.0 150V-532H14669.0L14671.0 -451Q14694.0 -497 14736.5 -520.5Q14779.0 -544 14832.0 -544Q14910.0 -544 14960.5 -505.5Q15011.0 -467 15035.5 -404.0Q15060.0 -341 15060.0 -266Q15060.0 -191 15035.5 -128.0Q15011.0 -65 14960.5 -26.5Q14910.0 12 14832.0 12Q14781.0 12 14739.0 -10.5Q14697.0 -33 14675.0 -72V150ZM14813.0 -80Q14877.0 -80 14913.5 -129.0Q14950.0 -178 14950.0 -266Q14950.0 -354 14913.5 -403.0Q14877.0 -452 14813.0 -452Q14749.0 -452 14712.0 -405.0Q14675.0 -358 14675.0 -266Q14675.0 -174 14712.0 -127.0Q14749.0 -80 14813.0 -80ZM15273.0 0Q15220.0 0 15188.5 -27.0Q15157.0 -54 15157.0 -113V-710H15263.0V-123Q15263.0 -87 15300.0 -87H15342.0V0ZM15568.0 12Q15485.0 12 15435.5 -26.0Q15386.0 -64 15386.0 -133Q15386.0 -201 15427.5 -240.0Q15469.0 -279 15556.0 -296L15739.0 -331Q15739.0 -454 15624.0 -454Q15573.0 -454 15544.0 -431.0Q15515.0 -408 15504.0 -365L15395.0 -372Q15410.0 -452 15469.5 -498.0Q15529.0 -544 15624.0 -544Q15732.0 -544 15788.5 -486.5Q15845.0 -429 15845.0 -325V-118Q15845.0 -99 15851.5 -91.5Q15858.0 -84 15873.0 -84H15892.0V0Q15878.0 3 15853.0 3Q15808.0 3 15781.5 -15.5Q15755.0 -34 15748.0 -79V-82Q15728.0 -40 15679.0 -14.0Q15630.0 12 15568.0 12ZM15585.0 -72Q15657.0 -72 15698.0 -113.0Q15739.0 -154 15739.0 -217V-251L15583.0 -221Q15535.0 -212 15515.5 -192.5Q15496.0 -173 15496.0 -143Q15496.0 -109 15519.5 -90.5Q15543.0 -72 15585.0 -72ZM16183.0 12Q16107.0 12 16050.0 -22.5Q15993.0 -57 15962.0 -119.5Q15931.0 -182 15931.0 -266Q15931.0 -350 15962.0 -412.5Q15993.0 -475 16050.0 -509.5Q16107.0 -544 16183.0 -544Q16280.0 -544 16344.0 -493.5Q16408.0 -443 16421.0 -351L16310.0 -345Q16302.0 -397 16268.0 -424.5Q16234.0 -452 16183.0 -452Q16116.0 -452 16078.5 -402.5Q16041.0 -353 16041.0 -266Q16041.0 -178 16078.5 -129.0Q16116.0 -80 16183.0 -80Q16234.0 -80 16268.0 -108.5Q16302.0 -137 16310.0 -195L16421.0 -189Q16408.0 -97 16344.5 -42.5Q16281.0 12 16183.0 12ZM16726.0 12Q16648.0 12 16591.5 -22.5Q16535.0 -57 16504.5 -119.5Q16474.0 -182 16474.0 -266Q16474.0 -350 16504.5 -412.5Q16535.0 -475 16591.0 -509.5Q16647.0 -544 16723.0 -544Q16795.0 -544 16850.0 -510.5Q16905.0 -477 16935.5 -414.0Q16966.0 -351 16966.0 -262V-235H16584.0Q16588.0 -157 16625.5 -118.0Q16663.0 -79 16727.0 -79Q16774.0 -79 16804.5 -100.5Q16835.0 -122 16848.0 -160L16958.0 -153Q16937.0 -78 16875.5 -33.0Q16814.0 12 16726.0 12ZM16584.0 -315H16854.0Q16849.0 -386 16813.0 -420.0Q16777.0 -454 16723.0 -454Q16666.0 -454 16629.5 -418.5Q16593.0 -383 16584.0 -315ZM17030.0 0V-126H17159.0V0Z" fill="#C9C9CF"/></g></svg>